PathFileType	4	(X/Y/Z)	E:\Marcel_BSc\Hannes_22_01_2025\22-01-2025\sumo_dl_3.trc
DataRate	CameraRate	NumFrames	NumMarkers	Units	OrigDataRate	OrigDataStartFrame	OrigNumFrames
200.0	200.0	8	48	mm	200.0	3474	2673	
Frame#	Time	FHD			LBHD			RBHD			RBAR			LBAR			RSACR			LSACR			USACR			LASI			C7			CLAV			T10			RSHO			LSHO			LTHI1			LTHI3			LTHI2			LTIB1			LTIB2			LTIB3			LMMAL			LLMAL			LHEE			LMT1			LMT5			LMT3			RTHI1			RTHI2			RTHI3			RTIB1			RTIB3			RTIB2			RLMAL			RMMAL			RHEE			RMT5			RMT1			RMT3			LDUPA			LMUPA			LUUPA			LUL			LRAD			LRFIN			RRAD			RMUPA			RDUPA			RUUPA			
		X1	Y1	Z1	X2	Y2	Z2	X3	Y3	Z3	X4	Y4	Z4	X5	Y5	Z5	X6	Y6	Z6	X7	Y7	Z7	X8	Y8	Z8	X9	Y9	Z9	X10	Y10	Z10	X11	Y11	Z11	X12	Y12	Z12	X13	Y13	Z13	X14	Y14	Z14	X15	Y15	Z15	X16	Y16	Z16	X17	Y17	Z17	X18	Y18	Z18	X19	Y19	Z19	X20	Y20	Z20	X21	Y21	Z21	X22	Y22	Z22	X23	Y23	Z23	X24	Y24	Z24	X25	Y25	Z25	X26	Y26	Z26	X27	Y27	Z27	X28	Y28	Z28	X29	Y29	Z29	X30	Y30	Z30	X31	Y31	Z31	X32	Y32	Z32	X33	Y33	Z33	X34	Y34	Z34	X35	Y35	Z35	X36	Y36	Z36	X37	Y37	Z37	X38	Y38	Z38	X39	Y39	Z39	X40	Y40	Z40	X41	Y41	Z41	X42	Y42	Z42	X43	Y43	Z43	X44	Y44	Z44	X45	Y45	Z45	X46	Y46	Z46	X47	Y47	Z47	X48	Y48	Z48	
3474	17.36	146.88754	1530.9238	-970.79901	232.88582	1540.2179	-865.65765	252.4198	1550.9952	-1060.8655	79.991241	638.66052	-2071.8137	129.29816	660.07941	147.15173	365.24234	924.62836	-972.68372	362.93787	931.61127	-919.36462	364.53284	936.89099	-947.9411				439.18686	1393.5757	-940.78394	257.31085	1353.3978	-960.90881	397.54828	1064.1248	-946.42279	354.77716	1340.0127	-1158.7744	318.36087	1338.8661	-749.66565	248.26747	772.29419	-699.71179	259.89169	709.55432	-683.51917	215.44031	725.36896	-665.04095	234.85852	272.82312	-533.89954	278.46381	266.66479	-560.61438	256.21344	210.37137	-535.67523	184.38251	76.434448	-564.65771	245.5157	83.667999	-496.82736	268.97501	25.882538	-547.14905	76.070366	41.873619	-452.11798	146.64148	28.702955	-391.86713	101.1474	33.300556	-409.43289	291.33096	744.17987	-1173.8108	259.74216	705.85291	-1217.6493	291.7843	680.09003	-1189.3231	215.57472	280.28186	-1355.6208	227.28761	216.54201	-1367.7908	261.33069	264.74966	-1340.3652	231.89369	80.544495	-1400.3448	157.58089	76.243179	-1338.3044	252.09665	29.374559	-1349.2484	148.46465	24.889963	-1504.2183	63.909031	37.315754	-1462.3464	94.531487	30.010048	-1499.9893	217.77051	1101.8412	-680.86603	240.42949	1159.3062	-686.77997	206.31665	1169.4733	-721.90582	89.419235	789.90173	-696.87463	84.689484	791.17682	-746.38562	61.14394	684.01099	-763.34149	155.06654	766.70789	-1232.0377	317.95273	1106.8529	-1232.6273	274.02032	1084.0048	-1227.7899	288.49973	1161.0182	-1222.2632
3475	17.365	147.69894	1530.879	-970.79938	233.73817	1540.163	-865.72656	253.15231	1550.9148	-1060.9399	79.743652	638.55664	-2072.0913	129.41434	660.19727	147.07455	365.2756	924.75024	-972.64343	363.104	931.51514	-919.48315	364.72137	936.79407	-948.09039				439.91287	1393.3179	-940.94397	257.98901	1353.391	-960.93768	397.8187	1063.9406	-946.60175	355.4964	1339.5967	-1158.5833	319.18918	1338.7809	-749.73505	248.47806	772.2301	-699.79535	260.14951	709.53058	-683.61749	215.63258	725.40619	-665.16022	234.96091	272.82602	-533.90094	278.54773	266.65219	-560.65515	256.31372	210.35211	-535.68353	184.19742	76.581406	-564.29211	245.52194	83.672142	-496.80472	268.97537	25.880671	-547.1427	76.076874	41.868732	-452.10815	146.662	28.686798	-391.84122	101.16285	33.285572	-409.42715	291.41232	744.21954	-1173.7732	259.83026	705.80151	-1217.5497	291.89511	680.12341	-1189.2114	215.73848	280.23291	-1355.4999	227.4371	216.51463	-1367.7462	261.38034	264.54437	-1340.0458	231.55072	81.080254	-1400.254	157.62294	76.236961	-1338.3153	252.14246	29.360811	-1349.2668	148.46759	24.891376	-1504.2133	63.887634	37.323288	-1462.3523	94.534988	30.010592	-1499.9797	218.46574	1101.6906	-680.89862	241.12822	1159.1753	-686.81195	206.97307	1169.4222	-721.8559	89.687286	789.9704	-696.94061	84.948296	791.26508	-746.4577	61.236832	684.16516	-763.39703	155.17868	766.67542	-1232.111	318.32935	1106.7073	-1232.7389	274.44254	1083.8297	-1227.9238	288.9697	1160.8439	-1222.4381
3476	17.37	148.43143	1530.8965	-970.77844	234.62993	1540.0787	-865.71649	253.8475	1550.8811	-1060.9562	79.688103	638.88397	-2072.0059	129.56114	660.31274	147.01236	365.53378	924.52667	-972.89539	363.26581	931.4317	-919.60425	364.87134	936.70514	-948.23285				440.64847	1393.0889	-941.12677	258.66046	1353.2238	-961.09558	398.10818	1063.7908	-946.73932	356.01312	1339.5521	-1158.9012	320.00162	1338.6495	-749.82043	248.80678	772.16028	-699.90375	260.33984	709.39026	-683.7583	215.85997	725.34302	-665.24689	235.09547	272.77597	-534.00092	278.66269	266.5882	-560.78638	256.41434	210.29973	-535.77057	184.1783	76.576759	-564.27252	245.53745	83.673355	-496.80383	268.9574	25.876015	-547.15552	76.08535	41.882805	-452.09335	146.67744	28.690536	-391.82932	101.17416	33.284725	-409.42328	291.50729	744.25989	-1173.7611	259.94177	705.75317	-1217.4305	292.01074	680.19177	-1189.0409	215.95833	280.14368	-1355.3798	227.60423	216.43484	-1367.6823	261.94147	264.20087	-1340.0496	231.90317	80.626968	-1400.3297	157.65475	76.243637	-1338.3036	252.1917	29.346937	-1349.292	148.4648	24.905842	-1504.2072	63.89753	37.327221	-1462.3372	94.544685	30.019812	-1499.963	219.10916	1101.5482	-680.91235	241.77229	1159.1193	-686.85266	207.59677	1169.3947	-721.80194	89.928268	790.05664	-696.98785	85.229179	791.32001	-746.57227	61.364887	684.26703	-763.47931	155.31114	766.63306	-1232.1584	318.715	1106.5128	-1232.8674	274.77057	1083.7429	-1228.03	289.39853	1160.7234	-1222.5861
3477	17.375	149.16626	1530.9646	-970.70111	235.41879	1540.0367	-865.75812	254.50294	1550.842	-1060.9926	79.602776	638.96558	-2072.0603	129.7108	660.43311	146.92914	365.68115	924.50348	-973.00549	363.4071	931.33215	-919.70618	365.03311	936.58734	-948.35205				441.2767	1392.8846	-941.31183	259.26465	1353.2045	-961.12878	398.37662	1063.656	-946.89404	356.62381	1339.1661	-1158.8491	320.80545	1338.5356	-749.87665	248.96677	772.0694	-700.01282	260.50433	709.33392	-683.89001	216.06097	725.2912	-665.34723	235.24185	272.73019	-534.14282	278.93814	266.34171	-561.06714	256.49902	210.21912	-535.92657	184.1628	76.568359	-564.29083	245.54352	83.668648	-496.8356	268.95068	25.866037	-547.18433	76.091484	41.885063	-452.10275	146.68176	28.687155	-391.84634	101.17406	33.179676	-409.50153	291.64532	744.29218	-1173.7263	260.07138	705.72247	-1217.3207	292.22693	680.17023	-1188.9116	216.24454	280.08627	-1355.3037	227.77547	216.37271	-1367.6234	262.45822	264.28326	-1340.3571	231.55742	81.062035	-1400.2695	157.69084	76.230354	-1338.2935	252.23166	29.324425	-1349.3118	148.46548	24.898886	-1504.202	63.891918	37.338428	-1462.3361	94.552704	30.01799	-1499.9495	219.61731	1101.5839	-680.89563	242.50914	1158.9407	-686.85278	208.30055	1169.2319	-721.78113	90.144203	790.12665	-697.06689	85.473183	791.39789	-746.63605	61.472939	684.38654	-763.53076	155.45067	766.58795	-1232.205	319.09305	1106.3516	-1232.9922	275.08569	1083.6394	-1228.1158	289.79269	1160.6107	-1222.7323
3478	17.38	149.89587	1530.9608	-970.69385	236.22751	1540.1031	-865.79224	255.15022	1550.7963	-1061.0603	79.55529	638.84851	-2072.2322	129.88657	660.56274	146.87463	365.81012	924.4928	-973.10492	363.6149	931.23114	-919.76611	365.20502	936.50885	-948.44238				441.89676	1392.6621	-941.49744	259.84799	1353.1389	-961.20984	398.62595	1063.4995	-947.03906	357.05652	1339.0507	-1158.98	321.53052	1338.484	-749.95294	249.09985	771.99066	-700.11945	260.66876	709.24756	-683.99371	216.23615	725.20709	-665.44287	235.34772	272.74762	-534.29218	278.96744	266.27188	-561.26508	256.50311	210.2197	-536.06793	184.12152	76.548004	-564.3053	245.51678	83.663185	-496.86832	268.97369	25.841845	-547.22839	76.082947	41.876587	-452.1171	146.66344	28.693089	-391.85504	101.17934	33.281845	-409.43988	291.89413	744.4577	-1173.7836	260.23135	705.69305	-1217.225	292.44473	680.19934	-1188.8097	216.44139	280.01483	-1355.1764	227.95996	216.32611	-1367.5712	262.15726	264.20886	-1339.854	231.5675	81.033951	-1400.2797	157.74055	76.239021	-1338.264	252.29091	29.26972	-1349.3549	148.45944	24.913757	-1504.1759	63.896587	37.331654	-1462.3182	94.556709	30.021515	-1499.9314	220.29257	1101.4362	-680.94525	243.08327	1158.8892	-686.88422	208.8492	1169.2689	-721.7616	90.367729	790.19293	-697.15149	85.670815	791.48676	-746.6875	61.62112	684.47626	-763.6076	155.5834	766.56494	-1232.2273	319.38284	1106.2546	-1233.0542	275.31125	1083.5967	-1228.2018	290.12436	1160.4749	-1222.8508
3479	17.385	150.4686	1531.1332	-970.54205	237.04849	1540.0747	-865.79187	255.69891	1550.8557	-1061.0656	79.509262	638.96796	-2072.3428	130.0666	660.68103	146.81586	365.86697	924.67035	-973.03534	363.87082	931.15613	-919.78918	365.32449	936.40631	-948.55389				442.43689	1392.5524	-941.66583	260.33774	1353.1229	-961.21588	398.95276	1063.3129	-947.1524	357.33759	1339.1124	-1159.2422	322.23938	1338.343	-750.03418	249.26401	771.9281	-700.18927	260.75552	709.15363	-684.0813	216.30228	725.15314	-665.5105	235.3806	272.71719	-534.45679	279.01074	266.23438	-561.40308	256.51239	210.1996	-536.16925	184.10661	76.519783	-564.3584	245.49408	83.691986	-496.91373	268.96136	25.839813	-547.25281	76.072395	41.880512	-452.13153	146.65796	28.697498	-391.8876	101.17437	33.285435	-409.44705	292.05716	744.42639	-1173.9181	260.37115	705.65125	-1217.1692	292.60605	680.26501	-1188.6637	216.66063	279.98776	-1355.0631	228.12445	216.30623	-1367.4904	262.3541	264.14835	-1339.7805	231.93195	80.593117	-1400.3329	157.78046	76.254875	-1338.2371	252.34044	29.257107	-1349.3724	148.46481	24.918144	-1504.1616	63.909157	37.307869	-1462.288	94.559952	30.026596	-1499.9135	220.80396	1101.3451	-680.97577	243.70734	1158.7654	-686.93463	209.40288	1169.2476	-721.74176	90.566635	790.24121	-697.22363	85.870682	791.57306	-746.72876	61.74691	684.57147	-763.65436	155.69171	766.53656	-1232.2426	319.62106	1106.1763	-1233.1063	275.58743	1083.4784	-1228.3037	290.38705	1160.3901	-1222.916
3480	17.39	151.17551	1531.2229	-970.53625	237.77777	1540.1545	-865.7821	256.28363	1550.8505	-1061.1166	79.505814	639.26117	-2072.2283	130.24835	660.828	146.7552	366.15146	924.41821	-973.29968	364.047	931.07831	-919.86237	365.51041	936.31073	-948.63141				442.91211	1392.3901	-941.83929	260.77637	1353.1187	-961.20959	399.26437	1063.1796	-947.26825	357.64938	1339.0232	-1159.3634	322.85452	1338.2728	-750.07367	249.38707	771.89526	-700.25653	260.85193	709.09918	-684.17499	216.39255	725.08392	-665.59058	235.32803	272.71072	-534.54492	278.94263	266.23831	-561.48279	256.48718	210.19571	-536.23914	184.07645	76.504242	-564.37494	245.47606	83.692108	-496.94235	268.94669	25.839457	-547.26001	76.059685	41.880272	-452.13974	146.65451	28.713266	-391.91547	101.16948	33.282986	-409.4635	292.10559	744.42889	-1173.8857	260.47668	705.63879	-1217.1432	292.78284	680.29938	-1188.7385	216.83504	279.99875	-1354.9941	228.22961	216.28181	-1367.4438	262.69003	264.26804	-1339.9661	231.61433	81.013916	-1400.2837	157.82246	76.269363	-1338.2075	252.36681	29.266773	-1349.3743	148.46989	24.928022	-1504.1519	63.897594	37.314838	-1462.2756	94.567642	30.02215	-1499.8969	221.24065	1101.3665	-680.95459	244.2841	1158.6553	-686.95111	210.00432	1169.0994	-721.75165	90.777527	790.31018	-697.28467	86.022781	791.66699	-746.82526	61.817596	684.7149	-763.6745	155.79355	766.52509	-1232.2576	319.82352	1106.1007	-1233.1632	275.84	1083.3573	-1228.3625	290.58749	1160.34	-1222.9342
3481	17.395	151.71533	1531.4071	-970.4906	238.39427	1540.2792	-865.82568	256.78955	1550.9088	-1061.1208	79.669472	639.50616	-2072.1597	130.4377	660.96967	146.71713	366.34955	924.36798	-973.37842	364.22925	931.03827	-919.9209	365.72488	936.25342	-948.66815				443.34634	1392.3027	-941.96228	261.16586	1353.1478	-961.19067	399.58252	1063.0664	-947.37537	357.91629	1338.9542	-1159.4388	323.40332	1338.2611	-750.13348	249.46945	771.93652	-700.30499	260.94113	709.06158	-684.24133	216.50334	725.05127	-665.64832	235.20338	272.74838	-534.58551	278.93066	266.21625	-561.51349	256.47766	210.21034	-536.23114	184.04306	76.491066	-564.38892	245.47891	83.702065	-496.96698	268.94547	25.847851	-547.27716	76.04615	41.875523	-452.14996	146.63614	28.70652	-391.94205	101.17886	33.265198	-409.47498	292.18915	744.48053	-1174.0032	260.53485	705.63123	-1217.1823	292.89636	680.28064	-1188.8081	216.93401	279.96658	-1354.9714	228.29858	216.25296	-1367.4183	262.7868	264.22891	-1339.96	231.9227	80.585045	-1400.3577	157.84669	76.266518	-1338.2118	252.39581	29.251331	-1349.4043	148.46815	24.926023	-1504.1462	63.905319	37.327583	-1462.274	94.568184	30.009432	-1499.8855	221.76183	1101.2616	-681.02393	244.76633	1158.6105	-686.99408	210.45947	1169.0834	-721.76495	90.972076	790.3894	-697.34149	86.190392	791.74994	-746.84314	61.915955	684.79669	-763.71655	155.87605	766.49493	-1232.2705	319.97711	1106.0232	-1233.2061	275.98642	1083.313	-1228.3698	290.77118	1160.2625	-1222.9578
